<svg width="25" height="25" viewBox="0 0 25 25" fill="none" xmlns="http://www.w3.org/2000/svg">
<g id="_Facebook " clip-path="url(#clip0_3134_2096)">
<path id="Subtract" fill-rule="evenodd" clip-rule="evenodd" d="M3.46289 0.0390625H21.4629C23.1174 0.0390625 24.4629 1.38456 24.4629 3.03906V21.0391C24.4629 22.6936 23.1174 24.0391 21.4629 24.0391H16.9629V15.7891H19.2129L20.7129 12.0391H16.9629V9.03906C16.9629 8.27798 17.5307 8.28237 18.2655 8.28805C18.3301 8.28855 18.396 8.28906 18.4629 8.28906H19.9629V4.53906H16.9629C14.4774 4.53906 12.4629 6.55356 12.4629 9.03906V12.0391H9.46289V15.7891H12.4629V24.0391H3.46289C1.80839 24.0391 0.462891 22.6936 0.462891 21.0391V3.03906C0.462891 1.38456 1.80839 0.0390625 3.46289 0.0390625Z" fill="#E1E5EA"/>
</g>
<defs>
<clipPath id="clip0_3134_2096">
<rect width="24" height="24" fill="white" transform="translate(0.462891 0.0390625)"/>
</clipPath>
</defs>
</svg>
