<svg width="25" height="25" viewBox="0 0 25 25" fill="none" xmlns="http://www.w3.org/2000/svg">
<g id="_Instagram " clip-path="url(#clip0_3134_2107)">
<g id="Vector">
<path d="M12.4629 2.2C15.6691 2.2 16.0488 2.21406 17.3098 2.27031C18.4816 2.32187 19.1145 2.51875 19.5363 2.68281C20.0941 2.89844 20.4973 3.16094 20.9145 3.57812C21.3363 4 21.5941 4.39844 21.8098 4.95625C21.9738 5.37813 22.1707 6.01562 22.2223 7.18281C22.2785 8.44844 22.2926 8.82812 22.2926 12.0297C22.2926 15.2359 22.2785 15.6156 22.2223 16.8766C22.1707 18.0484 21.9738 18.6813 21.8098 19.1031C21.5941 19.6609 21.3316 20.0641 20.9145 20.4813C20.4926 20.9031 20.0941 21.1609 19.5363 21.3766C19.1145 21.5406 18.477 21.7375 17.3098 21.7891C16.0441 21.8453 15.6645 21.8594 12.4629 21.8594C9.25664 21.8594 8.87695 21.8453 7.61602 21.7891C6.44414 21.7375 5.81133 21.5406 5.38945 21.3766C4.83164 21.1609 4.42852 20.8984 4.01133 20.4813C3.58945 20.0594 3.33164 19.6609 3.11602 19.1031C2.95195 18.6813 2.75508 18.0438 2.70352 16.8766C2.64727 15.6109 2.6332 15.2313 2.6332 12.0297C2.6332 8.82344 2.64727 8.44375 2.70352 7.18281C2.75508 6.01094 2.95195 5.37813 3.11602 4.95625C3.33164 4.39844 3.59414 3.99531 4.01133 3.57812C4.4332 3.15625 4.83164 2.89844 5.38945 2.68281C5.81133 2.51875 6.44883 2.32187 7.61602 2.27031C8.87695 2.21406 9.25664 2.2 12.4629 2.2ZM12.4629 0.0390625C9.20508 0.0390625 8.79727 0.053125 7.51758 0.109375C6.24258 0.165625 5.36602 0.371875 4.60664 0.667187C3.81445 0.976562 3.14414 1.38437 2.47852 2.05469C1.8082 2.72031 1.40039 3.39063 1.09102 4.17813C0.795703 4.94219 0.589453 5.81406 0.533203 7.08906C0.476953 8.37344 0.462891 8.78125 0.462891 12.0391C0.462891 15.2969 0.476953 15.7047 0.533203 16.9844C0.589453 18.2594 0.795703 19.1359 1.09102 19.8953C1.40039 20.6875 1.8082 21.3578 2.47852 22.0234C3.14414 22.6891 3.81445 23.1016 4.60195 23.4062C5.36602 23.7016 6.23789 23.9078 7.51289 23.9641C8.79258 24.0203 9.20039 24.0344 12.4582 24.0344C15.716 24.0344 16.1238 24.0203 17.4035 23.9641C18.6785 23.9078 19.5551 23.7016 20.3145 23.4062C21.102 23.1016 21.7723 22.6891 22.4379 22.0234C23.1035 21.3578 23.516 20.6875 23.8207 19.9C24.116 19.1359 24.3223 18.2641 24.3785 16.9891C24.4348 15.7094 24.4488 15.3016 24.4488 12.0438C24.4488 8.78594 24.4348 8.37813 24.3785 7.09844C24.3223 5.82344 24.116 4.94688 23.8207 4.1875C23.5254 3.39062 23.1176 2.72031 22.4473 2.05469C21.7816 1.38906 21.1113 0.976562 20.3238 0.671875C19.5598 0.376562 18.6879 0.170313 17.4129 0.114063C16.1285 0.053125 15.7207 0.0390625 12.4629 0.0390625Z" fill="#E1E5EA"/>
<path d="M12.4629 5.875C9.05977 5.875 6.29883 8.63594 6.29883 12.0391C6.29883 15.4422 9.05977 18.2031 12.4629 18.2031C15.866 18.2031 18.627 15.4422 18.627 12.0391C18.627 8.63594 15.866 5.875 12.4629 5.875ZM12.4629 16.0375C10.2551 16.0375 8.46445 14.2469 8.46445 12.0391C8.46445 9.83125 10.2551 8.04062 12.4629 8.04062C14.6707 8.04062 16.4613 9.83125 16.4613 12.0391C16.4613 14.2469 14.6707 16.0375 12.4629 16.0375Z" fill="#E1E5EA"/>
<path d="M20.3098 5.63121C20.3098 6.42809 19.6629 7.07027 18.8707 7.07027C18.0738 7.07027 17.4316 6.4234 17.4316 5.63121C17.4316 4.83433 18.0785 4.19215 18.8707 4.19215C19.6629 4.19215 20.3098 4.83902 20.3098 5.63121Z" fill="#E1E5EA"/>
</g>
</g>
<defs>
<clipPath id="clip0_3134_2107">
<rect width="24" height="24" fill="white" transform="translate(0.462891 0.0390625)"/>
</clipPath>
</defs>
</svg>
