<svg width="25" height="24" viewBox="0 0 25 24" fill="none" xmlns="http://www.w3.org/2000/svg">
<g id="_Snap">
<path id="Vector" d="M24.7393 18.1699C24.6347 17.8182 24.134 17.5702 24.134 17.5702C24.0866 17.5449 24.0443 17.5221 24.0094 17.5044C23.175 17.0944 22.4351 16.6009 21.8124 16.0417C21.3117 15.5912 20.8833 15.0953 20.5395 14.5689C20.1185 13.9261 19.9217 13.3896 19.8371 13.0986C19.7897 12.9088 19.7972 12.8329 19.8371 12.7342C19.8694 12.6507 19.9666 12.5723 20.0114 12.5343C20.2929 12.3319 20.7463 12.0333 21.0252 11.8511C21.2669 11.6916 21.4736 11.555 21.5957 11.4689C21.9868 11.1906 22.2558 10.9071 22.4127 10.6009C22.617 10.2062 22.6419 9.77092 22.4825 9.34325C22.2682 8.76628 21.7377 8.42212 21.0626 8.42212C20.9132 8.42212 20.7587 8.43983 20.6043 8.47273C20.2182 8.55877 19.852 8.69795 19.5456 8.81942C19.5232 8.82954 19.4983 8.81183 19.5008 8.78652C19.5332 8.0147 19.5705 6.97716 19.4858 5.99276C19.4111 5.102 19.2293 4.35042 18.9353 3.695C18.6389 3.03705 18.2528 2.55118 17.9514 2.19943C17.6649 1.86539 17.1593 1.37193 16.397 0.929079C15.3259 0.306557 14.1053 -0.00976562 12.7702 -0.00976562C11.4375 -0.00976562 10.2194 0.306557 9.14581 0.929079C8.33874 1.39724 7.82311 1.92613 7.58896 2.19943C7.28755 2.55118 6.90145 3.03705 6.60502 3.695C6.3086 4.35042 6.12925 5.09947 6.05452 5.99276C5.96983 6.98222 6.0047 7.93625 6.03957 8.78652C6.03957 8.81183 6.01716 8.82954 5.99225 8.81942C5.68586 8.69795 5.31968 8.55877 4.93358 8.47273C4.78163 8.43983 4.62719 8.42212 4.47524 8.42212C3.80268 8.42212 3.27211 8.76628 3.05539 9.34325C2.89597 9.77092 2.92088 10.2062 3.12514 10.6009C3.28456 10.9071 3.5511 11.1906 3.94218 11.4689C4.06174 11.555 4.27099 11.6916 4.51261 11.8511C4.78413 12.0307 5.22503 12.3217 5.509 12.5217C5.54387 12.547 5.66344 12.6381 5.7008 12.7342C5.74066 12.8354 5.74813 12.9114 5.69582 13.1138C5.60864 13.4074 5.41185 13.9388 4.99835 14.5689C4.65459 15.0978 4.22615 15.5912 3.72546 16.0417C3.10272 16.6009 2.3629 17.0944 1.52843 17.5044C1.48857 17.5246 1.44124 17.5474 1.39142 17.5777C1.39142 17.5777 0.893231 17.8359 0.798574 18.1699C0.65908 18.6634 1.03023 19.1265 1.40637 19.3745C2.02413 19.7794 2.7764 19.997 3.21232 20.1159C3.33438 20.1488 3.44398 20.1792 3.54362 20.2096C3.6059 20.2298 3.76283 20.2905 3.83008 20.3791C3.91478 20.4904 3.92474 20.6271 3.95463 20.7815C4.00196 21.0421 4.10907 21.3635 4.42543 21.5862C4.77416 21.8291 5.21506 21.8468 5.77553 21.8696C6.36091 21.8924 7.08827 21.9202 7.92275 22.2011C8.30885 22.3302 8.66007 22.5503 9.06361 22.8034C9.91054 23.3323 10.9642 23.9902 12.7627 23.9902C14.5637 23.9902 15.6248 23.3298 16.4767 22.7983C16.8803 22.5478 17.2265 22.3302 17.6051 22.2036C18.4396 21.9228 19.167 21.8949 19.7524 21.8721C20.3128 21.8494 20.7537 21.8342 21.1025 21.5887C21.4412 21.3508 21.5384 20.9966 21.5832 20.7308C21.6081 20.5993 21.6231 20.4803 21.6978 20.3842C21.7626 20.3007 21.907 20.2424 21.9743 20.2197C22.0764 20.1868 22.191 20.1564 22.3181 20.121C22.754 20.002 23.302 19.8629 23.9671 19.4807C24.7692 19.0176 24.824 18.4508 24.7393 18.1699Z" fill="#E1E5EA"/>
</g>
</svg>
