<svg width="21" height="24" viewBox="0 0 21 24" fill="none" xmlns="http://www.w3.org/2000/svg">
<g id="_Tiktok">
<path id="Tiktok" d="M20.7656 9.7002C20.5695 9.71926 20.3726 9.72925 20.1756 9.73013C19.1117 9.73028 18.0646 9.4655 17.1287 8.9597C16.1928 8.4539 15.3975 7.72299 14.8148 6.83296V16.6986C14.8148 18.1407 14.3871 19.5505 13.5859 20.7496C12.7847 21.9487 11.6459 22.8833 10.3135 23.4352C8.98114 23.9871 7.51503 24.1315 6.10058 23.8501C4.68614 23.5688 3.38689 22.8743 2.36713 21.8545C1.34737 20.8348 0.652907 19.5355 0.371556 18.1211C0.0902055 16.7067 0.234604 15.2405 0.786493 13.9082C1.33838 12.5758 2.27297 11.437 3.47208 10.6358C4.67119 9.83454 6.08096 9.40689 7.52312 9.40689C7.67533 9.40689 7.82412 9.42057 7.97377 9.42998V13.0232C7.82412 13.0053 7.67704 12.9779 7.52312 12.9779C6.53611 12.9779 5.58953 13.37 4.89161 14.0679C4.19369 14.7658 3.8016 15.7124 3.8016 16.6994C3.8016 17.6864 4.19369 18.633 4.89161 19.3309C5.58953 20.0288 6.53611 20.4209 7.52312 20.4209C9.57884 20.4209 11.3943 18.8013 11.3943 16.7456L11.4302 -0.00976562H14.8678C15.0249 1.48388 15.702 2.87478 16.7807 3.91975C17.8594 4.96472 19.2712 5.59726 20.769 5.70676V9.7002" fill="#E1E5EA"/>
</g>
</svg>
