<svg width="25" height="24" viewBox="0 0 25 24" fill="none" xmlns="http://www.w3.org/2000/svg">
<g id="_YouTube " clip-path="url(#clip0_3134_2270)">
<path id="Vector" d="M24.5295 7.18906C24.5295 7.18906 24.2951 5.53438 23.5732 4.80781C22.6592 3.85156 21.6373 3.84687 21.1686 3.79062C17.8123 3.54687 12.7732 3.54688 12.7732 3.54688H12.7639C12.7639 3.54688 7.7248 3.54687 4.36855 3.79062C3.8998 3.84687 2.87793 3.85156 1.96387 4.80781C1.24199 5.53438 1.0123 7.18906 1.0123 7.18906C1.0123 7.18906 0.768555 9.13438 0.768555 11.075V12.8937C0.768555 14.8344 1.00762 16.7797 1.00762 16.7797C1.00762 16.7797 1.24199 18.4344 1.95918 19.1609C2.87324 20.1172 4.07324 20.0844 4.60762 20.1875C6.52949 20.3703 12.7686 20.4266 12.7686 20.4266C12.7686 20.4266 17.8123 20.4172 21.1686 20.1781C21.6373 20.1219 22.6592 20.1172 23.5732 19.1609C24.2951 18.4344 24.5295 16.7797 24.5295 16.7797C24.5295 16.7797 24.7686 14.8391 24.7686 12.8937V11.075C24.7686 9.13438 24.5295 7.18906 24.5295 7.18906ZM10.2889 15.1016V8.35625L16.7717 11.7406L10.2889 15.1016Z" fill="#E1E5EA"/>
</g>
<defs>
<clipPath id="clip0_3134_2270">
<rect width="24" height="24" fill="white" transform="translate(0.768555 -0.00976562)"/>
</clipPath>
</defs>
</svg>
