<svg width="144" height="48" viewBox="0 0 144 48" fill="none" xmlns="http://www.w3.org/2000/svg">
<g id="ios">
<g id="Group">
<g id="Group_2">
<g id="Group_3">
<path id="Vector" d="M132.364 0.000155999H11.6447C11.2047 0.000155999 10.7699 0.000156 10.331 0.00255599C9.96364 0.00495598 9.59919 0.011928 9.22828 0.0177959C8.4225 0.0272781 7.61862 0.0981672 6.82362 0.229847C6.02973 0.364394 5.26071 0.618053 4.54257 0.982245C3.82531 1.34952 3.16993 1.82675 2.6002 2.39663C2.02748 2.96491 1.55007 3.62176 1.18634 4.34193C0.821603 5.06067 0.568692 5.83086 0.436344 6.62591C0.302738 7.41995 0.230843 8.22315 0.221305 9.0283C0.210169 9.39622 0.208993 9.76536 0.203125 10.1333V37.8704C0.208993 38.243 0.210169 38.6039 0.221305 38.9766C0.230846 39.7817 0.302741 40.5849 0.436344 41.3789C0.568327 42.1744 0.821252 42.945 1.18634 43.6641C1.54991 44.3819 2.02738 45.0361 2.6002 45.6012C3.16777 46.1736 3.82357 46.6512 4.54257 47.0156C5.2607 47.3808 6.02964 47.636 6.82362 47.7726C7.61875 47.9032 8.42256 47.9741 9.22828 47.9848C9.59919 47.9929 9.96364 47.9976 10.331 47.9976C10.7699 48 11.2047 48 11.6447 48H132.364C132.796 48 133.234 48 133.665 47.9976C134.031 47.9976 134.406 47.9929 134.771 47.9848C135.576 47.9747 136.378 47.9038 137.171 47.7726C137.968 47.635 138.74 47.3799 139.461 47.0156C140.18 46.651 140.835 46.1734 141.402 45.6012C141.973 45.0339 142.452 44.3802 142.82 43.6641C143.182 42.9445 143.433 42.174 143.563 41.3789C143.696 40.5848 143.771 39.7818 143.785 38.9766C143.79 38.6039 143.79 38.243 143.79 37.8704C143.799 37.4344 143.799 37.0008 143.799 36.5578V11.4435C143.799 11.004 143.799 10.5681 143.79 10.1333C143.79 9.76536 143.79 9.39622 143.785 9.02825C143.771 8.22304 143.696 7.42001 143.563 6.62586C143.432 5.83128 143.182 5.06114 142.82 4.34189C142.079 2.89838 140.904 1.72338 139.461 0.982137C138.74 0.618835 137.968 0.365243 137.171 0.229739C136.378 0.097479 135.576 0.0265652 134.771 0.0176279C134.406 0.011772 134.031 0.00473998 133.665 0.00239999C133.234 0 132.796 0 132.364 0V0.000155999Z" fill="white"/>
<path id="Vector_2" d="M10.3371 46.9506C9.97151 46.9506 9.61472 46.946 9.25198 46.9378C8.50052 46.928 7.75082 46.8626 7.00902 46.7421C6.31733 46.623 5.64727 46.4014 5.02094 46.0846C4.40035 45.7705 3.83433 45.3586 3.34455 44.8647C2.84768 44.3766 2.43401 43.8105 2.11994 43.1889C1.80241 42.5632 1.58266 41.8925 1.46834 41.2003C1.34489 40.4564 1.2781 39.7042 1.26854 38.9503C1.26094 38.6972 1.25098 37.8545 1.25098 37.8545V10.134C1.25098 10.134 1.26158 9.30427 1.2686 9.06052C1.27776 8.30774 1.34416 7.55675 1.46724 6.81404C1.58177 6.11987 1.80169 5.44727 2.11939 4.81953C2.43231 4.1983 2.84368 3.63181 3.33755 3.14199C3.83087 2.64752 4.39871 2.2335 5.02035 1.91503C5.64524 1.59929 6.31404 1.37926 7.00433 1.2623C7.74856 1.14058 8.50087 1.07478 9.25493 1.06543L10.3377 1.05078H133.659L134.755 1.06602C135.502 1.0749 136.248 1.14012 136.985 1.26113C137.682 1.37955 138.358 1.60112 138.99 1.91855C140.236 2.56036 141.249 3.57577 141.888 4.82245C142.201 5.44586 142.417 6.11297 142.531 6.80115C142.655 7.54995 142.725 8.30685 142.739 9.0658C142.743 9.40564 142.743 9.77067 142.743 10.134C142.752 10.584 142.752 11.0123 142.752 11.4441V36.5584C142.752 36.9944 142.752 37.4198 142.743 37.8487C142.743 38.2389 142.743 38.5964 142.738 38.9643C142.724 39.7097 142.655 40.4531 142.533 41.1885C142.421 41.8858 142.202 42.5617 141.885 43.1925C141.569 43.8074 141.157 44.3686 140.666 44.8553C140.176 45.3519 139.609 45.7662 138.987 46.0823C138.357 46.4015 137.682 46.6239 136.985 46.7421C136.243 46.8632 135.494 46.9287 134.742 46.9378C134.391 46.946 134.023 46.9506 133.665 46.9506L132.365 46.953L10.3371 46.9506Z" fill="#0F2145"/>
</g>
<g id="&#60;Group&#62;">
<g id="&#60;Group&#62;_2">
<g id="&#60;Group&#62;_3">
<path id="&#60;Path&#62;" d="M30.1995 23.8649C30.2129 22.8233 30.4896 21.8021 31.0037 20.8962C31.5179 19.9903 32.2528 19.2292 33.1402 18.6836C32.5765 17.8786 31.8328 17.216 30.9682 16.7486C30.1037 16.2812 29.142 16.0219 28.1597 15.9911C26.0642 15.7712 24.0328 17.245 22.9649 17.245C21.8765 17.245 20.2324 16.013 18.462 16.0494C17.3169 16.0864 16.2008 16.4194 15.2227 17.0159C14.2445 17.6125 13.4375 18.4523 12.8804 19.4534C10.4671 23.6318 12.2672 29.7727 14.579 33.1502C15.7356 34.804 17.0874 36.6515 18.8562 36.5859C20.5871 36.5141 21.2335 35.4822 23.3228 35.4822C25.3928 35.4822 25.9992 36.5859 27.8039 36.5443C29.6613 36.5141 30.8314 34.8831 31.9475 33.2135C32.7786 32.0351 33.4181 30.7327 33.8423 29.3545C32.7633 28.8981 31.8424 28.1342 31.1946 27.158C30.5468 26.1818 30.2007 25.0365 30.1995 23.8649Z" fill="white"/>
<path id="&#60;Path&#62;_2" d="M26.7905 13.7699C27.8032 12.5542 28.3021 10.9917 28.1813 9.41406C26.6342 9.57656 25.205 10.316 24.1787 11.485C23.6769 12.0561 23.2925 12.7206 23.0476 13.4403C22.8027 14.16 22.7021 14.921 22.7515 15.6796C23.5253 15.6876 24.2909 15.5199 24.9905 15.1891C25.6902 14.8583 26.3056 14.373 26.7905 13.7699Z" fill="white"/>
</g>
</g>
<g id="Group_4">
<path id="Vector_3" d="M50.9656 32.5652H45.2855L43.9215 36.593H41.5156L46.8957 21.6914H49.3953L54.7753 36.593H52.3285L50.9656 32.5652ZM45.8738 30.7066H50.3762L48.1567 24.1699H48.0945L45.8738 30.7066Z" fill="white"/>
<path id="Vector_4" d="M66.3941 31.1618C66.3941 34.5379 64.5871 36.7071 61.8602 36.7071C61.1694 36.7432 60.4824 36.5841 59.8778 36.2479C59.2733 35.9117 58.7756 35.4121 58.4418 34.8063H58.3902V40.1875H56.1602V25.729H58.3187V27.536H58.3598C58.7089 26.933 59.215 26.436 59.8241 26.0978C60.4333 25.7596 61.1227 25.5928 61.8191 25.6153C64.5766 25.6153 66.3941 27.795 66.3941 31.1618ZM64.1019 31.1618C64.1019 28.9622 62.9652 27.5161 61.2309 27.5161C59.527 27.5161 58.3809 28.9926 58.3809 31.1618C58.3809 33.3508 59.527 34.8168 61.2309 34.8168C62.9652 34.8168 64.1019 33.3813 64.1019 31.1618H64.1019Z" fill="white"/>
<path id="Vector_5" d="M78.3527 31.1618C78.3527 34.5379 76.5451 36.7071 73.8182 36.7071C73.1274 36.7432 72.4404 36.5841 71.8358 36.2479C71.2313 35.9117 70.7336 35.4121 70.3998 34.8063H70.3482V40.1875H68.1182V25.729H70.2767V27.536H70.3178C70.6669 26.933 71.173 26.436 71.7821 26.0978C72.3913 25.7596 73.0807 25.5928 73.7771 25.6153C76.5346 25.6153 78.3527 27.795 78.3527 31.1618ZM76.06 31.1618C76.06 28.9622 74.9232 27.5161 73.1889 27.5161C71.485 27.5161 70.3389 28.9926 70.3389 31.1618C70.3389 33.3508 71.485 34.8168 73.1889 34.8168C74.9232 34.8168 76.06 33.3813 76.06 31.1618Z" fill="white"/>
<path id="Vector_6" d="M86.2545 32.4414C86.4198 33.9192 87.8553 34.8894 89.817 34.8894C91.6967 34.8894 93.049 33.9191 93.049 32.5867C93.049 31.4301 92.2334 30.7375 90.3022 30.2629L88.3709 29.7976C85.6346 29.1367 84.3643 27.857 84.3643 25.7805C84.3643 23.2094 86.6049 21.4434 89.7854 21.4434C92.9354 21.4434 95.094 23.2094 95.1666 25.7805H92.9154C92.7807 24.2933 91.5514 23.3957 89.7549 23.3957C87.9584 23.3957 86.7291 24.3039 86.7291 25.6258C86.7291 26.6793 87.5143 27.2992 89.435 27.7738L91.0768 28.1769C94.1342 28.8999 95.4033 30.1281 95.4033 32.3077C95.4033 35.0956 93.1838 36.8417 89.6517 36.8417C86.3471 36.8417 84.1158 35.1366 83.9717 32.4413L86.2545 32.4414Z" fill="white"/>
<path id="Vector_7" d="M100.219 23.1582V25.7293H102.285V27.4953H100.219V33.4847C100.219 34.4152 100.632 34.8488 101.541 34.8488C101.786 34.8445 102.031 34.8273 102.274 34.7972V36.5527C101.866 36.6289 101.451 36.6635 101.036 36.6558C98.8359 36.6558 97.9781 35.8296 97.9781 33.7226V27.4953H96.3984V25.7293H97.9781V23.1582H100.219Z" fill="white"/>
<path id="Vector_8" d="M103.48 31.1621C103.48 27.7437 105.494 25.5957 108.633 25.5957C111.783 25.5957 113.787 27.7437 113.787 31.1621C113.787 34.5898 111.794 36.7285 108.633 36.7285C105.474 36.7285 103.48 34.5898 103.48 31.1621ZM111.515 31.1621C111.515 28.8172 110.44 27.4332 108.633 27.4332C106.826 27.4332 105.752 28.8277 105.752 31.1621C105.752 33.5164 106.826 34.8898 108.633 34.8898C110.44 34.8898 111.515 33.5164 111.515 31.1621H111.515Z" fill="white"/>
<path id="Vector_9" d="M115.625 25.7289H117.752V27.5781H117.804C117.947 27.0005 118.286 26.4901 118.762 26.1327C119.238 25.7752 119.822 25.5925 120.417 25.6152C120.674 25.6143 120.93 25.6422 121.181 25.6984V27.7843C120.856 27.6852 120.518 27.6396 120.179 27.6495C119.855 27.6364 119.532 27.6935 119.232 27.817C118.932 27.9405 118.663 28.1273 118.442 28.3648C118.221 28.6023 118.054 28.8847 117.953 29.1927C117.852 29.5007 117.818 29.827 117.855 30.1491V36.5933H115.625L115.625 25.7289Z" fill="white"/>
<path id="Vector_10" d="M131.463 33.4027C131.163 35.375 129.243 36.7285 126.785 36.7285C123.625 36.7285 121.663 34.6109 121.663 31.2137C121.663 27.8059 123.635 25.5957 126.692 25.5957C129.697 25.5957 131.588 27.6605 131.588 30.9547V31.7187H123.914V31.8535C123.879 32.2533 123.929 32.6561 124.061 33.0351C124.193 33.4141 124.405 33.7607 124.681 34.0517C124.958 34.3428 125.293 34.5717 125.664 34.7233C126.036 34.8748 126.436 34.9456 126.837 34.9308C127.364 34.9802 127.893 34.8581 128.345 34.5828C128.797 34.3075 129.148 33.8936 129.346 33.4027L131.463 33.4027ZM123.925 30.1601H129.356C129.376 29.8006 129.322 29.4409 129.196 29.1034C129.071 28.766 128.877 28.4581 128.626 28.1992C128.376 27.9403 128.075 27.7359 127.742 27.5988C127.409 27.4618 127.052 27.395 126.692 27.4027C126.328 27.4006 125.968 27.4703 125.632 27.608C125.296 27.7457 124.991 27.9486 124.734 28.205C124.476 28.4613 124.273 28.7661 124.134 29.1017C123.995 29.4372 123.924 29.797 123.925 30.1602V30.1601Z" fill="white"/>
</g>
</g>
</g>
<g id="&#60;Group&#62;_4">
<g id="Group_5">
<path id="Vector_11" d="M45.5941 10.4788C46.0617 10.4453 46.5308 10.5159 46.9677 10.6856C47.4047 10.8553 47.7985 11.1199 48.1208 11.4603C48.4431 11.8006 48.6858 12.2083 48.8315 12.6538C48.9772 13.0993 49.0222 13.5716 48.9633 14.0366C48.9633 16.3241 47.7269 17.639 45.5941 17.639H43.0078V10.4788H45.5941ZM44.1199 16.6264H45.4699C45.804 16.6464 46.1383 16.5916 46.4486 16.4661C46.7588 16.3405 47.0372 16.1474 47.2634 15.9007C47.4895 15.654 47.6579 15.36 47.7561 15.0401C47.8543 14.7201 47.88 14.3823 47.8312 14.0512C47.8765 13.7214 47.8482 13.3857 47.7485 13.0681C47.6487 12.7505 47.48 12.4589 47.2543 12.2142C47.0286 11.9695 46.7516 11.7777 46.4431 11.6526C46.1346 11.5275 45.8023 11.4722 45.4699 11.4907H44.1199V16.6264Z" fill="white"/>
<path id="Vector_12" d="M50.2201 14.9345C50.1861 14.5794 50.2267 14.2211 50.3393 13.8826C50.4519 13.5442 50.634 13.2329 50.874 12.969C51.1139 12.705 51.4064 12.4941 51.7326 12.3497C52.0588 12.2054 52.4116 12.1309 52.7683 12.1309C53.125 12.1309 53.4778 12.2054 53.804 12.3497C54.1302 12.4941 54.4227 12.705 54.6626 12.969C54.9025 13.2329 55.0847 13.5442 55.1973 13.8826C55.3099 14.2211 55.3505 14.5794 55.3165 14.9345C55.3511 15.29 55.311 15.6487 55.1987 15.9878C55.0864 16.3268 54.9044 16.6386 54.6644 16.9031C54.4244 17.1676 54.1317 17.3789 53.8052 17.5236C53.4786 17.6682 53.1254 17.7429 52.7683 17.7429C52.4111 17.7429 52.0579 17.6682 51.7314 17.5236C51.4049 17.3789 51.1122 17.1676 50.8722 16.9031C50.6322 16.6386 50.4502 16.3268 50.3379 15.9878C50.2256 15.6487 50.1854 15.29 50.2201 14.9345ZM54.2196 14.9345C54.2196 13.7632 53.6935 13.0783 52.7701 13.0783C51.8431 13.0783 51.3217 13.7632 51.3217 14.9345C51.3217 16.1152 51.8431 16.7949 52.7701 16.7949C53.6935 16.7948 54.2197 16.1105 54.2197 14.9345H54.2196Z" fill="white"/>
<path id="Vector_13" d="M62.0906 17.6379H60.9844L59.8676 13.6582H59.7832L58.6711 17.6379H57.5754L56.0859 12.2344H57.1676L58.1355 16.3576H58.2152L59.3262 12.2344H60.3492L61.4601 16.3576H61.5445L62.5078 12.2344H63.5742L62.0906 17.6379Z" fill="white"/>
<path id="Vector_14" d="M64.8272 12.2346H65.8537V13.093H65.9334C66.0686 12.7847 66.2966 12.5263 66.5856 12.3537C66.8747 12.1811 67.2104 12.103 67.5459 12.1303C67.8088 12.1106 68.0728 12.1502 68.3183 12.2463C68.5638 12.3424 68.7846 12.4925 68.9642 12.6856C69.1438 12.8786 69.2777 13.1095 69.356 13.3613C69.4342 13.6131 69.4548 13.8793 69.4162 14.1401V17.6381H68.3498V14.4079C68.3498 13.5395 67.9725 13.1077 67.1838 13.1077C67.0053 13.0994 66.8271 13.1297 66.6614 13.1967C66.4957 13.2637 66.3465 13.3658 66.224 13.4958C66.1014 13.6259 66.0084 13.7809 65.9514 13.9503C65.8944 14.1196 65.8746 14.2993 65.8935 14.477V17.6381H64.8271L64.8272 12.2346Z" fill="white"/>
<path id="Vector_15" d="M71.1152 10.125H72.1816V17.6379H71.1152V10.125Z" fill="white"/>
<path id="Vector_16" d="M73.6634 14.9327C73.6294 14.5775 73.6701 14.2192 73.7827 13.8807C73.8954 13.5422 74.0775 13.231 74.3175 12.967C74.5574 12.703 74.8499 12.4921 75.1761 12.3478C75.5024 12.2035 75.8552 12.1289 76.2119 12.1289C76.5687 12.1289 76.9215 12.2035 77.2477 12.3478C77.574 12.4921 77.8664 12.703 78.1064 12.967C78.3463 13.231 78.5285 13.5422 78.6411 13.8807C78.7537 14.2192 78.7944 14.5775 78.7604 14.9327C78.795 15.2881 78.7548 15.6469 78.6425 15.9859C78.5301 16.325 78.3481 16.6367 78.1081 16.9012C77.8681 17.1657 77.5754 17.3771 77.2488 17.5217C76.9223 17.6663 76.5691 17.7411 76.2119 17.7411C75.8548 17.7411 75.5016 17.6663 75.175 17.5217C74.8484 17.3771 74.5557 17.1657 74.3157 16.9012C74.0757 16.6367 73.8937 16.325 73.7813 15.9859C73.669 15.6469 73.6288 15.2881 73.6634 14.9327ZM77.663 14.9327C77.663 13.7614 77.1368 13.0764 76.2134 13.0764C75.2864 13.0764 74.765 13.7614 74.765 14.9327C74.765 16.1133 75.2865 16.793 76.2134 16.793C77.1368 16.793 77.663 16.1086 77.663 14.9327H77.663Z" fill="white"/>
<path id="Vector_17" d="M79.8838 16.1086C79.8838 15.1359 80.608 14.5752 81.8935 14.4955L83.3572 14.4111V13.9447C83.3572 13.374 82.9799 13.0518 82.251 13.0518C81.6557 13.0518 81.2432 13.2703 81.1248 13.6523H80.0924C80.2014 12.7242 81.0744 12.1289 82.3002 12.1289C83.6549 12.1289 84.4189 12.8033 84.4189 13.9447V17.6367H83.3924V16.8773H83.308C83.1367 17.1497 82.8963 17.3718 82.6111 17.5208C82.326 17.6699 82.0064 17.7406 81.685 17.7257C81.4581 17.7493 81.2288 17.7251 81.0119 17.6547C80.795 17.5842 80.5953 17.4691 80.4256 17.3168C80.2559 17.1644 80.12 16.9782 80.0267 16.7701C79.9334 16.562 79.8847 16.3366 79.8838 16.1086ZM83.3572 15.6469V15.1951L82.0377 15.2795C81.2935 15.3293 80.956 15.5824 80.956 16.0588C80.956 16.5451 81.3779 16.8281 81.958 16.8281C82.128 16.8453 82.2997 16.8281 82.4629 16.7776C82.6261 16.7271 82.7775 16.6443 82.908 16.5341C83.0386 16.4239 83.1456 16.2885 83.2228 16.1361C83.2999 15.9837 83.3457 15.8173 83.3572 15.6469Z" fill="white"/>
<path id="Vector_18" d="M85.8203 14.9338C85.8203 13.2264 86.698 12.1447 88.0633 12.1447C88.401 12.1292 88.7361 12.2101 89.0296 12.3779C89.323 12.5458 89.5626 12.7937 89.7203 13.0927H89.8V10.125H90.8664V17.6379H89.8445V16.7842H89.7601C89.5902 17.0811 89.3423 17.326 89.0432 17.4922C88.7441 17.6583 88.4052 17.7395 88.0633 17.7269C86.6887 17.727 85.8203 16.6453 85.8203 14.9338ZM86.9219 14.9338C86.9219 16.0799 87.4621 16.7695 88.3657 16.7695C89.2645 16.7695 89.8199 16.0699 89.8199 14.9385C89.8199 13.8123 89.2586 13.1027 88.3657 13.1027C87.468 13.1027 86.9219 13.7971 86.9219 14.9338H86.9219Z" fill="white"/>
<path id="Vector_19" d="M95.2787 14.9345C95.2447 14.5794 95.2853 14.2211 95.3979 13.8826C95.5105 13.5442 95.6926 13.2329 95.9326 12.969C96.1725 12.705 96.4649 12.4941 96.7912 12.3497C97.1174 12.2054 97.4702 12.1309 97.8269 12.1309C98.1836 12.1309 98.5364 12.2054 98.8626 12.3497C99.1888 12.4941 99.4813 12.705 99.7212 12.969C99.9611 13.2329 100.143 13.5442 100.256 13.8826C100.368 14.2211 100.409 14.5794 100.375 14.9345C100.41 15.29 100.37 15.6487 100.257 15.9878C100.145 16.3268 99.963 16.6386 99.723 16.9031C99.483 17.1676 99.1903 17.3789 98.8638 17.5236C98.5372 17.6682 98.184 17.7429 97.8269 17.7429C97.4697 17.7429 97.1165 17.6682 96.79 17.5236C96.4634 17.3789 96.1708 17.1676 95.9308 16.9031C95.6908 16.6386 95.5088 16.3268 95.3965 15.9878C95.2842 15.6487 95.244 15.29 95.2787 14.9345ZM99.2782 14.9345C99.2782 13.7632 98.7521 13.0783 97.8286 13.0783C96.9017 13.0783 96.3803 13.7632 96.3803 14.9345C96.3803 16.1152 96.9017 16.7949 97.8286 16.7949C98.7521 16.7948 99.2782 16.1105 99.2782 14.9345Z" fill="white"/>
<path id="Vector_20" d="M101.806 12.2346H102.832V13.093H102.912C103.047 12.7847 103.275 12.5263 103.564 12.3537C103.853 12.1811 104.189 12.103 104.524 12.1303C104.787 12.1106 105.051 12.1502 105.297 12.2463C105.542 12.3424 105.763 12.4925 105.943 12.6856C106.122 12.8786 106.256 13.1095 106.334 13.3613C106.413 13.6131 106.433 13.8793 106.395 14.1401V17.6381H105.328V14.4079C105.328 13.5395 104.951 13.1077 104.162 13.1077C103.984 13.0994 103.806 13.1297 103.64 13.1967C103.474 13.2637 103.325 13.3658 103.202 13.4958C103.08 13.6259 102.987 13.7809 102.93 13.9503C102.873 14.1196 102.853 14.2993 102.872 14.477V17.6381H101.806V12.2346Z" fill="white"/>
<path id="Vector_21" d="M112.42 10.8887V12.2586H113.591V13.1568H112.42V15.9353C112.42 16.5014 112.654 16.7492 113.185 16.7492C113.32 16.7488 113.456 16.7405 113.591 16.7246V17.6129C113.4 17.6471 113.206 17.6653 113.011 17.6674C111.825 17.6674 111.353 17.2502 111.353 16.2084V13.1568H110.495V12.2585H111.353V10.8887H112.42Z" fill="white"/>
<path id="Vector_22" d="M115.048 10.125H116.105V13.1027H116.189C116.331 12.7915 116.565 12.5316 116.86 12.3584C117.155 12.1852 117.496 12.1071 117.837 12.1348C118.098 12.1205 118.36 12.1642 118.603 12.2626C118.845 12.3611 119.063 12.5119 119.241 12.7043C119.419 12.8967 119.552 13.126 119.631 13.3757C119.71 13.6255 119.733 13.8896 119.698 14.1492V17.6379H118.63V14.4123C118.63 13.5492 118.228 13.1121 117.475 13.1121C117.292 13.0971 117.107 13.1223 116.935 13.1859C116.762 13.2496 116.606 13.3502 116.476 13.4807C116.346 13.6111 116.247 13.7684 116.184 13.9413C116.122 14.1143 116.098 14.2988 116.114 14.482V17.6379H115.048L115.048 10.125Z" fill="white"/>
<path id="Vector_23" d="M125.916 16.1778C125.771 16.6717 125.457 17.0988 125.029 17.3846C124.601 17.6704 124.086 17.7966 123.575 17.7411C123.219 17.7505 122.865 17.6823 122.538 17.5413C122.211 17.4002 121.919 17.1897 121.681 16.9244C121.444 16.659 121.267 16.3451 121.163 16.0045C121.059 15.664 121.03 15.3048 121.079 14.952C121.031 14.5982 121.06 14.2383 121.164 13.8967C121.268 13.555 121.444 13.2397 121.68 12.972C121.916 12.7044 122.207 12.4905 122.534 12.3451C122.86 12.1996 123.213 12.126 123.57 12.129C125.074 12.129 125.981 13.1562 125.981 14.853V15.2251H122.165V15.2849C122.148 15.4831 122.173 15.6827 122.238 15.8708C122.303 16.0589 122.407 16.2314 122.542 16.3771C122.678 16.5229 122.842 16.6387 123.025 16.7172C123.208 16.7957 123.405 16.8351 123.604 16.8328C123.859 16.8635 124.118 16.8175 124.347 16.7009C124.575 16.5842 124.764 16.4022 124.89 16.1778L125.916 16.1778ZM122.165 14.4364H124.894C124.908 14.2551 124.883 14.0729 124.822 13.9016C124.761 13.7304 124.664 13.5738 124.539 13.442C124.414 13.3101 124.263 13.206 124.095 13.1362C123.927 13.0664 123.746 13.0324 123.564 13.0366C123.38 13.0343 123.197 13.0689 123.026 13.1385C122.855 13.208 122.7 13.311 122.569 13.4415C122.439 13.5719 122.336 13.7272 122.267 13.898C122.197 14.0689 122.163 14.252 122.165 14.4364H122.165Z" fill="white"/>
</g>
</g>
</g>
</g>
</svg>
