<svg width="163" height="48" viewBox="0 0 163 48" fill="none" xmlns="http://www.w3.org/2000/svg">
<g id="play">
<path id="Vector" d="M156.8 48H6.79981C3.49981 48 0.799805 45.3 0.799805 42V6C0.799805 2.7 3.49981 0 6.79981 0H156.8C160.1 0 162.8 2.7 162.8 6V42C162.8 45.3 160.1 48 156.8 48Z" fill="#0F2145"/>
<path id="Vector_2" d="M156.8 0H6.79981C3.49981 0 0.799805 2.7 0.799805 6V42C0.799805 45.3 3.49981 48 6.79981 48H156.8C160.1 48 162.8 45.3 162.8 42V6C162.8 2.7 160.1 0 156.8 0ZM156.8 0.96C159.579 0.96 161.84 3.2208 161.84 6V42C161.84 44.7792 159.579 47.04 156.8 47.04H6.79981C4.02061 47.04 1.75981 44.7792 1.75981 42V6C1.75981 3.2208 4.02061 0.96 6.79981 0.96H156.8Z" fill="white"/>
<path id="Vector_3" d="M57.7011 12.2724C57.7011 13.278 57.4035 14.0784 56.8071 14.676C56.1291 15.3864 55.2471 15.7415 54.1623 15.7415C53.1219 15.7415 52.2387 15.3816 51.5127 14.6604C50.7843 13.9404 50.4219 13.0464 50.4219 11.9808C50.4219 10.914 50.7843 10.0211 51.5127 9.29995C52.2387 8.57995 53.1219 8.21875 54.1623 8.21875C54.6771 8.21875 55.1715 8.31955 55.6395 8.52115C56.1087 8.72275 56.4843 8.99035 56.7663 9.32515L56.1327 9.95875C55.6563 9.38995 54.9999 9.10435 54.1623 9.10435C53.4039 9.10435 52.7487 9.37075 52.1955 9.90355C51.6423 10.4375 51.3663 11.1288 51.3663 11.9808C51.3663 12.8316 51.6423 13.524 52.1955 14.0568C52.7487 14.5908 53.4039 14.856 54.1623 14.856C54.9663 14.856 55.6359 14.5884 56.1735 14.052C56.5215 13.7028 56.7219 13.218 56.7759 12.594H54.1623V11.7287H57.6507C57.6843 11.9171 57.7011 12.0984 57.7011 12.2724Z" fill="white"/>
<path id="Vector_4" d="M57.7011 12.2724C57.7011 13.278 57.4035 14.0784 56.8071 14.676C56.1291 15.3864 55.2471 15.7415 54.1623 15.7415C53.1219 15.7415 52.2387 15.3816 51.5127 14.6604C50.7843 13.9404 50.4219 13.0464 50.4219 11.9808C50.4219 10.914 50.7843 10.0211 51.5127 9.29995C52.2387 8.57995 53.1219 8.21875 54.1623 8.21875C54.6771 8.21875 55.1715 8.31955 55.6395 8.52115C56.1087 8.72275 56.4843 8.99035 56.7663 9.32515L56.1327 9.95875C55.6563 9.38995 54.9999 9.10435 54.1623 9.10435C53.4039 9.10435 52.7487 9.37075 52.1955 9.90355C51.6423 10.4375 51.3663 11.1288 51.3663 11.9808C51.3663 12.8316 51.6423 13.524 52.1955 14.0568C52.7487 14.5908 53.4039 14.856 54.1623 14.856C54.9663 14.856 55.6359 14.5884 56.1735 14.052C56.5215 13.7028 56.7219 13.218 56.7759 12.594H54.1623V11.7287H57.6507C57.6843 11.9171 57.7011 12.0984 57.7011 12.2724Z" stroke="white" stroke-width="0.000619355" stroke-miterlimit="10"/>
<path id="Vector_5" d="M63.2309 9.26331H59.9525V11.5457H62.9093V12.4109H59.9525V14.6933H63.2309V15.5789H59.0273V8.37891H63.2309V9.26331Z" fill="white"/>
<path id="Vector_6" d="M63.2309 9.26331H59.9525V11.5457H62.9093V12.4109H59.9525V14.6933H63.2309V15.5789H59.0273V8.37891H63.2309V9.26331Z" stroke="white" stroke-width="0.000619355" stroke-miterlimit="10"/>
<path id="Vector_7" d="M67.1405 15.5789H66.2153V9.26331H64.2041V8.37891H69.1517V9.26331H67.1405V15.5789Z" fill="white"/>
<path id="Vector_8" d="M67.1405 15.5789H66.2153V9.26331H64.2041V8.37891H69.1517V9.26331H67.1405V15.5789Z" stroke="white" stroke-width="0.000619355" stroke-miterlimit="10"/>
<path id="Vector_9" d="M72.7295 8.37891H73.6547V15.5789H72.7295V8.37891Z" fill="white"/>
<path id="Vector_10" d="M72.7295 8.37891H73.6547V15.5789H72.7295V8.37891Z" stroke="white" stroke-width="0.000619355" stroke-miterlimit="10"/>
<path id="Vector_11" d="M77.7548 15.5789H76.8296V9.26331H74.8184V8.37891H79.766V9.26331H77.7548V15.5789Z" fill="white"/>
<path id="Vector_12" d="M77.7548 15.5789H76.8296V9.26331H74.8184V8.37891H79.766V9.26331H77.7548V15.5789Z" stroke="white" stroke-width="0.000619355" stroke-miterlimit="10"/>
<path id="Vector_13" d="M84.5317 14.0472C85.0645 14.5872 85.7161 14.856 86.4877 14.856C87.2593 14.856 87.9109 14.5872 88.4437 14.0472C88.9765 13.5072 89.2441 12.8184 89.2441 11.9808C89.2441 11.1432 88.9765 10.4532 88.4437 9.91435C87.9109 9.37435 87.2593 9.10435 86.4877 9.10435C85.7161 9.10435 85.0645 9.37435 84.5317 9.91435C84.0001 10.4532 83.7325 11.1432 83.7325 11.9808C83.7325 12.8184 84.0001 13.5072 84.5317 14.0472ZM89.1277 14.6495C88.4197 15.378 87.5401 15.7415 86.4877 15.7415C85.4353 15.7415 84.5557 15.378 83.8489 14.6495C83.1409 13.9223 82.7881 13.0332 82.7881 11.9808C82.7881 10.9284 83.1409 10.038 83.8489 9.31075C84.5557 8.58355 85.4353 8.21875 86.4877 8.21875C87.5341 8.21875 88.4113 8.58475 89.1229 9.31555C89.8333 10.0463 90.1885 10.9344 90.1885 11.9808C90.1885 13.0332 89.8345 13.9223 89.1277 14.6495Z" fill="white"/>
<path id="Vector_14" d="M84.5317 14.0472C85.0645 14.5872 85.7161 14.856 86.4877 14.856C87.2593 14.856 87.9109 14.5872 88.4437 14.0472C88.9765 13.5072 89.2441 12.8184 89.2441 11.9808C89.2441 11.1432 88.9765 10.4532 88.4437 9.91435C87.9109 9.37435 87.2593 9.10435 86.4877 9.10435C85.7161 9.10435 85.0645 9.37435 84.5317 9.91435C84.0001 10.4532 83.7325 11.1432 83.7325 11.9808C83.7325 12.8184 84.0001 13.5072 84.5317 14.0472ZM89.1277 14.6495C88.4197 15.378 87.5401 15.7415 86.4877 15.7415C85.4353 15.7415 84.5557 15.378 83.8489 14.6495C83.1409 13.9223 82.7881 13.0332 82.7881 11.9808C82.7881 10.9284 83.1409 10.038 83.8489 9.31075C84.5557 8.58355 85.4353 8.21875 86.4877 8.21875C87.5341 8.21875 88.4113 8.58475 89.1229 9.31555C89.8333 10.0463 90.1885 10.9344 90.1885 11.9808C90.1885 13.0332 89.8345 13.9223 89.1277 14.6495Z" stroke="white" stroke-width="0.000619355" stroke-miterlimit="10"/>
<path id="Vector_15" d="M91.4951 15.5789V8.37891H92.6207L96.1199 13.9793H96.1607L96.1199 12.5921V8.37891H97.0463V15.5789H96.0803L92.4191 9.70611H92.3795L92.4191 11.0945V15.5789H91.4951Z" fill="white"/>
<path id="Vector_16" d="M91.4951 15.5789V8.37891H92.6207L96.1199 13.9793H96.1607L96.1199 12.5921V8.37891H97.0463V15.5789H96.0803L92.4191 9.70611H92.3795L92.4191 11.0945V15.5789H91.4951Z" stroke="white" stroke-width="0.000619355" stroke-miterlimit="10"/>
<path id="Vector_17" d="M129.12 35.9791H131.359V20.9779H129.12V35.9791ZM149.288 26.3815L146.721 32.8855H146.645L143.981 26.3815H141.569L145.563 35.4715L143.287 40.5283H145.621L151.778 26.3815H149.288ZM136.59 34.2752C135.855 34.2752 134.833 33.9091 134.833 33.0007C134.833 31.8439 136.106 31.3999 137.207 31.3999C138.191 31.3999 138.655 31.6123 139.253 31.9015C139.079 33.2911 137.882 34.2752 136.59 34.2752ZM136.86 26.0539C135.239 26.0539 133.559 26.7679 132.865 28.3507L134.852 29.1799C135.277 28.3507 136.068 28.0795 136.898 28.0795C138.056 28.0795 139.233 28.7743 139.253 30.0103V30.1639C138.847 29.9323 137.979 29.5855 136.917 29.5855C134.775 29.5855 132.594 30.7627 132.594 32.9623C132.594 34.9699 134.351 36.2635 136.319 36.2635C137.825 36.2635 138.655 35.5879 139.176 34.7959H139.253V35.9539H141.414V30.2023C141.414 27.5395 139.427 26.0539 136.86 26.0539ZM123.021 28.2079H119.837V23.0659H123.021C124.695 23.0659 125.646 24.4519 125.646 25.6363C125.646 26.7991 124.695 28.2079 123.021 28.2079ZM122.964 20.9779H117.599V35.9791H119.837V30.2959H122.964C125.445 30.2959 127.885 28.4983 127.885 25.6363C127.885 22.7743 125.445 20.9779 122.964 20.9779ZM93.7065 34.2775C92.1597 34.2775 90.8649 32.9827 90.8649 31.2043C90.8649 29.4067 92.1597 28.0915 93.7065 28.0915C95.2341 28.0915 96.4317 29.4067 96.4317 31.2043C96.4317 32.9827 95.2341 34.2775 93.7065 34.2775ZM96.2781 27.2215H96.2001C95.6973 26.6227 94.7313 26.0815 93.5133 26.0815C90.9609 26.0815 88.6221 28.3231 88.6221 31.2043C88.6221 34.0651 90.9609 36.2887 93.5133 36.2887C94.7313 36.2887 95.6973 35.7475 96.2001 35.1283H96.2781V35.8639C96.2781 37.8163 95.2341 38.8603 93.5517 38.8603C92.1789 38.8603 91.3281 37.874 90.9801 37.0424L89.0277 37.8547C89.5881 39.2083 91.0773 40.8703 93.5517 40.8703C96.1809 40.8703 98.4045 39.3235 98.4045 35.5543V26.3899H96.2781V27.2215ZM99.9513 35.9791H102.194V20.9767H99.9513V35.9791ZM105.499 31.0303C105.441 29.0587 107.027 28.0531 108.167 28.0531C109.057 28.0531 109.811 28.4971 110.061 29.1355L105.499 31.0303ZM112.459 29.3287C112.034 28.1887 110.738 26.0815 108.09 26.0815C105.461 26.0815 103.277 28.1491 103.277 31.1851C103.277 34.0459 105.441 36.2887 108.341 36.2887C110.681 36.2887 112.034 34.8583 112.595 34.0267L110.855 32.8663C110.275 33.7171 109.482 34.2775 108.341 34.2775C107.201 34.2775 106.388 33.7555 105.866 32.7319L112.691 29.9083L112.459 29.3287ZM58.0893 27.6475V29.8123H63.2697C63.1149 31.0303 62.7093 31.9195 62.0913 32.5375C61.3365 33.2923 60.1569 34.1239 58.0893 34.1239C54.8985 34.1239 52.4049 31.5523 52.4049 28.3627C52.4049 25.1719 54.8985 22.6015 58.0893 22.6015C59.8101 22.6015 61.0665 23.2783 61.9941 24.1483L63.5217 22.6207C62.2257 21.3835 60.5061 20.4355 58.0893 20.4355C53.7201 20.4355 50.0469 23.9935 50.0469 28.3627C50.0469 32.7319 53.7201 36.2887 58.0893 36.2887C60.4473 36.2887 62.2257 35.5147 63.6177 34.0651C65.0493 32.6347 65.4933 30.6247 65.4933 28.9999C65.4933 28.4971 65.4549 28.0339 65.3769 27.6475H58.0893ZM71.3841 34.2775C69.8373 34.2775 68.5029 33.0019 68.5029 31.1851C68.5029 29.3479 69.8373 28.0915 71.3841 28.0915C72.9297 28.0915 74.2641 29.3479 74.2641 31.1851C74.2641 33.0019 72.9297 34.2775 71.3841 34.2775ZM71.3841 26.0815C68.5605 26.0815 66.2601 28.2271 66.2601 31.1851C66.2601 34.1239 68.5605 36.2887 71.3841 36.2887C74.2065 36.2887 76.5069 34.1239 76.5069 31.1851C76.5069 28.2271 74.2065 26.0815 71.3841 26.0815ZM82.5597 34.2775C81.0129 34.2775 79.6785 33.0019 79.6785 31.1851C79.6785 29.3479 81.0129 28.0915 82.5597 28.0915C84.1065 28.0915 85.4397 29.3479 85.4397 31.1851C85.4397 33.0019 84.1065 34.2775 82.5597 34.2775ZM82.5597 26.0815C79.7373 26.0815 77.4369 28.2271 77.4369 31.1851C77.4369 34.1239 79.7373 36.2887 82.5597 36.2887C85.3821 36.2887 87.6825 34.1239 87.6825 31.1851C87.6825 28.2271 85.3821 26.0815 82.5597 26.0815Z" fill="white"/>
<path id="Vector_18" d="M15.4507 15.7022L22.8487 23.1254C23.3503 23.6294 23.3503 24.4454 22.8487 24.9482L15.4411 32.5022L15.4507 15.7022ZM18.0079 12.0686L26.2963 16.8446L29.2375 18.539L26.4763 21.3098C25.9747 21.8126 25.1611 21.8126 24.6595 21.3098L15.7675 12.3914C16.2979 11.8442 17.2555 11.6234 18.0079 12.0686ZM17.0791 36.1718C16.5811 36.1718 16.1383 35.9498 15.8203 35.6294L24.6595 26.7638C25.1611 26.261 25.9747 26.261 26.4763 26.7638L29.1979 29.495L17.9707 35.933C17.7031 36.089 17.3947 36.1718 17.0791 36.1718ZM35.9515 25.541L31.5019 28.1726L28.2871 24.9482C27.7855 24.4454 27.7855 23.6294 28.2871 23.1254L31.5379 19.865L35.9659 22.4726L35.9947 22.4882C36.5551 22.793 36.9019 23.3726 36.9019 24.0026C36.9019 24.6374 36.5503 25.2194 35.9515 25.541ZM37.3483 20.2514L19.2979 9.84983C18.6271 9.45143 17.8591 9.24023 17.0791 9.24023C15.0703 9.24023 13.3111 10.6094 12.9043 12.461C12.8599 12.6386 12.7567 13.0994 12.7663 13.5374L12.7675 34.4882C12.7819 34.913 12.8971 35.4878 12.9151 35.5574C13.4167 37.4318 15.1291 38.7398 17.0791 38.7398C17.8483 38.7398 18.6031 38.5358 19.2523 38.1566L37.3099 27.8018C38.7115 27.0494 39.5827 25.5986 39.5827 24.0146C39.5827 22.4474 38.7271 21.0062 37.3483 20.2514Z" fill="white"/>
</g>
</svg>
